<?xml version="1.0" encoding="UTF-8" standalone="no"?>
<!DOCTYPE svg PUBLIC "-//W3C//DTD SVG 1.1//EN"
 "http://www.w3.org/Graphics/SVG/1.1/DTD/svg11.dtd">
<!-- Generated by graphviz version 2.36.0 (20140111.2315)
 -->
<!-- Title: PACKETS Pages: 1 -->
<svg width="2395pt" height="1857pt"
 viewBox="0.00 0.00 2394.82 1857.22" xmlns="http://www.w3.org/2000/svg" xmlns:xlink="http://www.w3.org/1999/xlink">
<g id="graph0" class="graph" transform="scale(1 1) rotate(0) translate(4 1853.22)">
<title>PACKETS</title>
<polygon fill="white" stroke="none" points="-4,4 -4,-1853.22 2390.82,-1853.22 2390.82,4 -4,4"/>
<!-- 44 -->
<g id="node1" class="node"><title>44</title>
<ellipse fill="none" stroke="black" cx="27" cy="-1341.53" rx="27" ry="18"/>
<text text-anchor="middle" x="27" y="-1337.83" font-family="Times,serif" font-size="14.00">44</text>
</g>
<!-- 4 -->
<g id="node2" class="node"><title>4</title>
<ellipse fill="none" stroke="black" cx="1043.33" cy="-1258.04" rx="27" ry="18"/>
<text text-anchor="middle" x="1043.33" y="-1254.34" font-family="Times,serif" font-size="14.00">4</text>
</g>
<!-- 44&#45;&gt;4 -->
<g id="edge1" class="edge"><title>44&#45;&gt;4</title>
<path fill="none" stroke="black" d="M53.9225,-1339.32C194.532,-1327.77 844.273,-1274.39 1006.53,-1261.06"/>
<polygon fill="black" stroke="black" points="1006.82,-1264.55 1016.5,-1260.24 1006.25,-1257.57 1006.82,-1264.55"/>
<text text-anchor="middle" x="526.727" y="-1303.99" font-family="Times,serif" font-size="14.00">1</text>
</g>
<!-- 1 -->
<g id="node4" class="node"><title>1</title>
<ellipse fill="none" stroke="black" cx="1037.35" cy="-1383.47" rx="27" ry="18"/>
<text text-anchor="middle" x="1037.35" y="-1379.77" font-family="Times,serif" font-size="14.00">1</text>
</g>
<!-- 4&#45;&gt;1 -->
<g id="edge31" class="edge"><title>4&#45;&gt;1</title>
<path fill="none" stroke="black" d="M1042.46,-1276.28C1041.47,-1296.99 1039.85,-1331.05 1038.7,-1355.21"/>
<polygon fill="black" stroke="black" points="1035.2,-1355.05 1038.22,-1365.21 1042.19,-1355.39 1035.2,-1355.05"/>
<text text-anchor="middle" x="1037.08" y="-1319.54" font-family="Times,serif" font-size="14.00">1</text>
</g>
<!-- 45 -->
<g id="node3" class="node"><title>45</title>
<ellipse fill="none" stroke="black" cx="826.725" cy="-1466.77" rx="27" ry="18"/>
<text text-anchor="middle" x="826.725" y="-1463.07" font-family="Times,serif" font-size="14.00">45</text>
</g>
<!-- 45&#45;&gt;1 -->
<g id="edge2" class="edge"><title>45&#45;&gt;1</title>
<path fill="none" stroke="black" d="M850.071,-1457.54C887.632,-1442.68 961.599,-1413.43 1004.48,-1396.47"/>
<polygon fill="black" stroke="black" points="1005.89,-1399.68 1013.9,-1392.74 1003.32,-1393.17 1005.89,-1399.68"/>
<text text-anchor="middle" x="923.775" y="-1430.8" font-family="Times,serif" font-size="14.00">1</text>
</g>
<!-- 2 -->
<g id="node35" class="node"><title>2</title>
<ellipse fill="none" stroke="black" cx="1066.96" cy="-1505.5" rx="27" ry="18"/>
<text text-anchor="middle" x="1066.96" y="-1501.8" font-family="Times,serif" font-size="14.00">2</text>
</g>
<!-- 1&#45;&gt;2 -->
<g id="edge33" class="edge"><title>1&#45;&gt;2</title>
<path fill="none" stroke="black" d="M1041.72,-1401.48C1046.57,-1421.48 1054.47,-1454.05 1060.14,-1477.41"/>
<polygon fill="black" stroke="black" points="1056.81,-1478.53 1062.57,-1487.42 1063.61,-1476.88 1056.81,-1478.53"/>
<text text-anchor="middle" x="1047.43" y="-1443.24" font-family="Times,serif" font-size="14.00">1</text>
</g>
<!-- 14 -->
<g id="node5" class="node"><title>14</title>
<ellipse fill="none" stroke="black" cx="1476.53" cy="-18" rx="27" ry="18"/>
<text text-anchor="middle" x="1476.53" y="-14.3" font-family="Times,serif" font-size="14.00">14</text>
</g>
<!-- 18 -->
<g id="node6" class="node"><title>18</title>
<ellipse fill="none" stroke="black" cx="1497.52" cy="-900.855" rx="27" ry="18"/>
<text text-anchor="middle" x="1497.52" y="-897.155" font-family="Times,serif" font-size="14.00">18</text>
</g>
<!-- 14&#45;&gt;18 -->
<g id="edge3" class="edge"><title>14&#45;&gt;18</title>
<path fill="none" stroke="black" d="M1476.96,-36.0354C1479.6,-146.986 1493.62,-736.687 1496.86,-872.806"/>
<polygon fill="black" stroke="black" points="1493.36,-872.934 1497.1,-882.848 1500.36,-872.768 1493.36,-872.934"/>
<text text-anchor="middle" x="1483.41" y="-458.221" font-family="Times,serif" font-size="14.00">1</text>
</g>
<!-- 49 -->
<g id="node15" class="node"><title>49</title>
<ellipse fill="none" stroke="black" cx="1620.83" cy="-924.619" rx="27" ry="18"/>
<text text-anchor="middle" x="1620.83" y="-920.919" font-family="Times,serif" font-size="14.00">49</text>
</g>
<!-- 18&#45;&gt;49 -->
<g id="edge26" class="edge"><title>18&#45;&gt;49</title>
<path fill="none" stroke="black" d="M1523.67,-905.895C1541.41,-909.313 1565.1,-913.878 1584.64,-917.645"/>
<polygon fill="black" stroke="black" points="1584.23,-921.131 1594.72,-919.587 1585.56,-914.257 1584.23,-921.131"/>
<text text-anchor="middle" x="1550.66" y="-915.57" font-family="Times,serif" font-size="14.00">1</text>
</g>
<!-- 32 -->
<g id="node7" class="node"><title>32</title>
<ellipse fill="none" stroke="black" cx="1909.74" cy="-1425.03" rx="27" ry="18"/>
<text text-anchor="middle" x="1909.74" y="-1421.33" font-family="Times,serif" font-size="14.00">32</text>
</g>
<!-- 255 -->
<g id="node8" class="node"><title>255</title>
<ellipse fill="none" stroke="black" cx="1868.67" cy="-1543.69" rx="27" ry="18"/>
<text text-anchor="middle" x="1868.67" y="-1539.99" font-family="Times,serif" font-size="14.00">255</text>
</g>
<!-- 32&#45;&gt;255 -->
<g id="edge4" class="edge"><title>32&#45;&gt;255</title>
<path fill="none" stroke="black" d="M1903.59,-1442.79C1896.87,-1462.19 1886.04,-1493.51 1878.21,-1516.11"/>
<polygon fill="black" stroke="black" points="1874.82,-1515.21 1874.86,-1525.8 1881.44,-1517.5 1874.82,-1515.21"/>
<text text-anchor="middle" x="1880.4" y="-1483.25" font-family="Times,serif" font-size="14.00">145</text>
</g>
<!-- 0 -->
<g id="node22" class="node"><title>0</title>
<ellipse fill="none" stroke="black" cx="1697.12" cy="-1723.6" rx="27" ry="18"/>
<text text-anchor="middle" x="1697.12" y="-1719.9" font-family="Times,serif" font-size="14.00">0</text>
</g>
<!-- 255&#45;&gt;0 -->
<g id="edge15" class="edge"><title>255&#45;&gt;0</title>
<path fill="none" stroke="black" d="M1854.04,-1559.03C1823.78,-1590.76 1754.19,-1663.76 1718.73,-1700.94"/>
<polygon fill="black" stroke="black" points="1716.08,-1698.65 1711.71,-1708.3 1721.14,-1703.48 1716.08,-1698.65"/>
<text text-anchor="middle" x="1779.39" y="-1618.79" font-family="Times,serif" font-size="14.00">25</text>
</g>
<!-- 34 -->
<g id="node9" class="node"><title>34</title>
<ellipse fill="none" stroke="black" cx="1255.94" cy="-959.462" rx="27" ry="18"/>
<text text-anchor="middle" x="1255.94" y="-955.762" font-family="Times,serif" font-size="14.00">34</text>
</g>
<!-- 34&#45;&gt;4 -->
<g id="edge16" class="edge"><title>34&#45;&gt;4</title>
<path fill="none" stroke="black" d="M1244.21,-975.94C1208.85,-1025.59 1103.18,-1173.99 1061,-1233.22"/>
<polygon fill="black" stroke="black" points="1057.97,-1231.44 1055.03,-1241.61 1063.68,-1235.5 1057.97,-1231.44"/>
<text text-anchor="middle" x="1149.11" y="-1108.38" font-family="Times,serif" font-size="14.00">1</text>
</g>
<!-- 34&#45;&gt;1 -->
<g id="edge12" class="edge"><title>34&#45;&gt;1</title>
<path fill="none" stroke="black" d="M1247.1,-976.608C1213.32,-1042.13 1092.24,-1277 1051.13,-1356.75"/>
<polygon fill="black" stroke="black" points="1047.77,-1355.62 1046.3,-1366.11 1054,-1358.82 1047.77,-1355.62"/>
<text text-anchor="middle" x="1145.61" y="-1170.48" font-family="Times,serif" font-size="14.00">1</text>
</g>
<!-- 34&#45;&gt;18 -->
<g id="edge23" class="edge"><title>34&#45;&gt;18</title>
<path fill="none" stroke="black" d="M1281.34,-953.3C1324.66,-942.792 1412.91,-921.382 1462.21,-909.423"/>
<polygon fill="black" stroke="black" points="1463.21,-912.78 1472.11,-907.021 1461.56,-905.978 1463.21,-912.78"/>
<text text-anchor="middle" x="1368.27" y="-935.161" font-family="Times,serif" font-size="14.00">1</text>
</g>
<!-- 11 -->
<g id="node10" class="node"><title>11</title>
<ellipse fill="none" stroke="black" cx="1157.24" cy="-1037.09" rx="27" ry="18"/>
<text text-anchor="middle" x="1157.24" y="-1033.39" font-family="Times,serif" font-size="14.00">11</text>
</g>
<!-- 34&#45;&gt;11 -->
<g id="edge5" class="edge"><title>34&#45;&gt;11</title>
<path fill="none" stroke="black" d="M1238.3,-973.339C1222.86,-985.481 1200.24,-1003.27 1182.81,-1016.97"/>
<polygon fill="black" stroke="black" points="1180.43,-1014.39 1174.73,-1023.33 1184.76,-1019.9 1180.43,-1014.39"/>
<text text-anchor="middle" x="1207.06" y="-998.956" font-family="Times,serif" font-size="14.00">1</text>
</g>
<!-- 34&#45;&gt;49 -->
<g id="edge17" class="edge"><title>34&#45;&gt;49</title>
<path fill="none" stroke="black" d="M1282.77,-956.9C1347.09,-950.758 1510.16,-935.187 1583.77,-928.158"/>
<polygon fill="black" stroke="black" points="1584.34,-931.62 1593.96,-927.185 1583.67,-924.652 1584.34,-931.62"/>
<text text-anchor="middle" x="1429.77" y="-946.329" font-family="Times,serif" font-size="14.00">1</text>
</g>
<!-- 31 -->
<g id="node17" class="node"><title>31</title>
<ellipse fill="none" stroke="black" cx="1372.52" cy="-912.791" rx="27" ry="18"/>
<text text-anchor="middle" x="1372.52" y="-909.091" font-family="Times,serif" font-size="14.00">31</text>
</g>
<!-- 34&#45;&gt;31 -->
<g id="edge53" class="edge"><title>34&#45;&gt;31</title>
<path fill="none" stroke="black" d="M1279.25,-950.129C1296.65,-943.166 1320.64,-933.563 1339.93,-925.839"/>
<polygon fill="black" stroke="black" points="1341.27,-929.073 1349.25,-922.107 1338.67,-922.575 1341.27,-929.073"/>
<text text-anchor="middle" x="1306.09" y="-941.784" font-family="Times,serif" font-size="14.00">1</text>
</g>
<!-- 33 -->
<g id="node20" class="node"><title>33</title>
<ellipse fill="none" stroke="black" cx="1084.4" cy="-1139.37" rx="27" ry="18"/>
<text text-anchor="middle" x="1084.4" y="-1135.67" font-family="Times,serif" font-size="14.00">33</text>
</g>
<!-- 34&#45;&gt;33 -->
<g id="edge11" class="edge"><title>34&#45;&gt;33</title>
<path fill="none" stroke="black" d="M1241.32,-974.801C1211.06,-1006.53 1141.46,-1079.53 1106.01,-1116.71"/>
<polygon fill="black" stroke="black" points="1103.35,-1114.42 1098.99,-1124.07 1108.42,-1119.25 1103.35,-1114.42"/>
<text text-anchor="middle" x="1170.16" y="-1049.56" font-family="Times,serif" font-size="14.00">1</text>
</g>
<!-- 11&#45;&gt;33 -->
<g id="edge42" class="edge"><title>11&#45;&gt;33</title>
<path fill="none" stroke="black" d="M1145.53,-1053.52C1133.75,-1070.07 1115.42,-1095.81 1101.9,-1114.79"/>
<polygon fill="black" stroke="black" points="1099.02,-1112.8 1096.07,-1122.98 1104.72,-1116.86 1099.02,-1112.8"/>
<text text-anchor="middle" x="1120.22" y="-1087.96" font-family="Times,serif" font-size="14.00">1</text>
</g>
<!-- 6 -->
<g id="node11" class="node"><title>6</title>
<ellipse fill="none" stroke="black" cx="2359.82" cy="-1448.93" rx="27" ry="18"/>
<text text-anchor="middle" x="2359.82" y="-1445.23" font-family="Times,serif" font-size="14.00">6</text>
</g>
<!-- 13 -->
<g id="node12" class="node"><title>13</title>
<ellipse fill="none" stroke="black" cx="2262.1" cy="-1464.81" rx="27" ry="18"/>
<text text-anchor="middle" x="2262.1" y="-1461.11" font-family="Times,serif" font-size="14.00">13</text>
</g>
<!-- 6&#45;&gt;13 -->
<g id="edge6" class="edge"><title>6&#45;&gt;13</title>
<path fill="none" stroke="black" d="M2333.37,-1453.22C2322.73,-1454.95 2310.27,-1456.98 2298.77,-1458.85"/>
<polygon fill="black" stroke="black" points="2297.87,-1455.45 2288.56,-1460.51 2299,-1462.36 2297.87,-1455.45"/>
<text text-anchor="middle" x="2312.57" y="-1459.84" font-family="Times,serif" font-size="14.00">1</text>
</g>
<!-- 13&#45;&gt;32 -->
<g id="edge28" class="edge"><title>13&#45;&gt;32</title>
<path fill="none" stroke="black" d="M2235.33,-1461.79C2173,-1454.75 2018.1,-1437.26 1946.77,-1429.21"/>
<polygon fill="black" stroke="black" points="1946.8,-1425.69 1936.47,-1428.04 1946.01,-1432.64 1946.8,-1425.69"/>
<text text-anchor="middle" x="2087.55" y="-1449.3" font-family="Times,serif" font-size="14.00">1</text>
</g>
<!-- 3 -->
<g id="node13" class="node"><title>3</title>
<ellipse fill="none" stroke="black" cx="1795.83" cy="-1645.98" rx="27" ry="18"/>
<text text-anchor="middle" x="1795.83" y="-1642.28" font-family="Times,serif" font-size="14.00">3</text>
</g>
<!-- 21 -->
<g id="node14" class="node"><title>21</title>
<ellipse fill="none" stroke="black" cx="1915.71" cy="-1299.6" rx="27" ry="18"/>
<text text-anchor="middle" x="1915.71" y="-1295.9" font-family="Times,serif" font-size="14.00">21</text>
</g>
<!-- 3&#45;&gt;21 -->
<g id="edge7" class="edge"><title>3&#45;&gt;21</title>
<path fill="none" stroke="black" d="M1801.94,-1628.33C1821.5,-1571.81 1882.68,-1395.05 1906.29,-1326.83"/>
<polygon fill="black" stroke="black" points="1909.65,-1327.81 1909.61,-1317.21 1903.04,-1325.52 1909.65,-1327.81"/>
<text text-anchor="middle" x="1847.11" y="-1481.38" font-family="Times,serif" font-size="14.00">73</text>
</g>
<!-- 21&#45;&gt;32 -->
<g id="edge51" class="edge"><title>21&#45;&gt;32</title>
<path fill="none" stroke="black" d="M1914.84,-1317.83C1913.86,-1338.55 1912.23,-1372.6 1911.08,-1396.76"/>
<polygon fill="black" stroke="black" points="1907.59,-1396.61 1910.61,-1406.77 1914.58,-1396.94 1907.59,-1396.61"/>
<text text-anchor="middle" x="1902.46" y="-1361.1" font-family="Times,serif" font-size="14.00">145</text>
</g>
<!-- 49&#45;&gt;21 -->
<g id="edge8" class="edge"><title>49&#45;&gt;21</title>
<path fill="none" stroke="black" d="M1633.5,-940.732C1680,-999.867 1841.46,-1205.17 1896.87,-1275.64"/>
<polygon fill="black" stroke="black" points="1894.16,-1277.85 1903.09,-1283.54 1899.66,-1273.52 1894.16,-1277.85"/>
<text text-anchor="middle" x="1761.68" y="-1111.98" font-family="Times,serif" font-size="14.00">1</text>
</g>
<!-- 12 -->
<g id="node16" class="node"><title>12</title>
<ellipse fill="none" stroke="black" cx="984.625" cy="-112.807" rx="27" ry="18"/>
<text text-anchor="middle" x="984.625" y="-109.107" font-family="Times,serif" font-size="14.00">12</text>
</g>
<!-- 12&#45;&gt;31 -->
<g id="edge9" class="edge"><title>12&#45;&gt;31</title>
<path fill="none" stroke="black" d="M993.088,-130.26C1043.03,-233.264 1299.16,-761.504 1359.69,-886.331"/>
<polygon fill="black" stroke="black" points="1356.66,-888.097 1364.17,-895.568 1362.96,-885.043 1356.66,-888.097"/>
<text text-anchor="middle" x="1172.89" y="-512.095" font-family="Times,serif" font-size="14.00">1</text>
</g>
<!-- 31&#45;&gt;2 -->
<g id="edge60" class="edge"><title>31&#45;&gt;2</title>
<path fill="none" stroke="black" d="M1363.71,-929.891C1320.67,-1013.37 1132.6,-1378.17 1080.42,-1479.38"/>
<polygon fill="black" stroke="black" points="1077.28,-1477.84 1075.81,-1488.33 1083.5,-1481.05 1077.28,-1477.84"/>
<text text-anchor="middle" x="1218.56" y="-1208.44" font-family="Times,serif" font-size="14.00">1</text>
</g>
<!-- 8 -->
<g id="node18" class="node"><title>8</title>
<ellipse fill="none" stroke="black" cx="2006.03" cy="-1506.43" rx="27" ry="18"/>
<text text-anchor="middle" x="2006.03" y="-1502.73" font-family="Times,serif" font-size="14.00">8</text>
</g>
<!-- 40 -->
<g id="node19" class="node"><title>40</title>
<ellipse fill="none" stroke="black" cx="2103.75" cy="-1490.55" rx="27" ry="18"/>
<text text-anchor="middle" x="2103.75" y="-1486.85" font-family="Times,serif" font-size="14.00">40</text>
</g>
<!-- 8&#45;&gt;40 -->
<g id="edge10" class="edge"><title>8&#45;&gt;40</title>
<path fill="none" stroke="black" d="M2032.48,-1502.13C2043.12,-1500.4 2055.58,-1498.38 2067.08,-1496.51"/>
<polygon fill="black" stroke="black" points="2067.97,-1499.91 2077.28,-1494.85 2066.85,-1493 2067.97,-1499.91"/>
<text text-anchor="middle" x="2046.28" y="-1503.12" font-family="Times,serif" font-size="14.00">1</text>
</g>
<!-- 40&#45;&gt;13 -->
<g id="edge21" class="edge"><title>40&#45;&gt;13</title>
<path fill="none" stroke="black" d="M2130.25,-1486.24C2156.36,-1482 2196.46,-1475.48 2225.59,-1470.74"/>
<polygon fill="black" stroke="black" points="2226.46,-1474.15 2235.77,-1469.09 2225.34,-1467.24 2226.46,-1474.15"/>
<text text-anchor="middle" x="2174.42" y="-1482.29" font-family="Times,serif" font-size="14.00">1</text>
</g>
<!-- 33&#45;&gt;2 -->
<g id="edge56" class="edge"><title>33&#45;&gt;2</title>
<path fill="none" stroke="black" d="M1083.53,-1157.53C1080.71,-1216.82 1071.74,-1405.07 1068.31,-1477.1"/>
<polygon fill="black" stroke="black" points="1064.81,-1477.08 1067.83,-1487.24 1071.8,-1477.41 1064.81,-1477.08"/>
<text text-anchor="middle" x="1072.42" y="-1321.11" font-family="Times,serif" font-size="14.00">1</text>
</g>
<!-- 46 -->
<g id="node21" class="node"><title>46</title>
<ellipse fill="none" stroke="black" cx="1886.11" cy="-1177.56" rx="27" ry="18"/>
<text text-anchor="middle" x="1886.11" y="-1173.86" font-family="Times,serif" font-size="14.00">46</text>
</g>
<!-- 46&#45;&gt;21 -->
<g id="edge13" class="edge"><title>46&#45;&gt;21</title>
<path fill="none" stroke="black" d="M1890.48,-1195.57C1895.33,-1215.58 1903.23,-1248.14 1908.9,-1271.51"/>
<polygon fill="black" stroke="black" points="1905.57,-1272.62 1911.33,-1281.52 1912.37,-1270.97 1905.57,-1272.62"/>
<text text-anchor="middle" x="1892.69" y="-1237.34" font-family="Times,serif" font-size="14.00">49</text>
</g>
<!-- 0&#45;&gt;3 -->
<g id="edge14" class="edge"><title>0&#45;&gt;3</title>
<path fill="none" stroke="black" d="M1714.77,-1709.73C1730.21,-1697.58 1752.83,-1679.8 1770.25,-1666.09"/>
<polygon fill="black" stroke="black" points="1772.64,-1668.67 1778.33,-1659.74 1768.31,-1663.17 1772.64,-1668.67"/>
<text text-anchor="middle" x="1735.51" y="-1691.71" font-family="Times,serif" font-size="14.00">75</text>
</g>
<!-- 0&#45;&gt;46 -->
<g id="edge54" class="edge"><title>0&#45;&gt;46</title>
<path fill="none" stroke="black" d="M1703.2,-1706.05C1730.63,-1626.8 1843.07,-1301.91 1876.62,-1204.99"/>
<polygon fill="black" stroke="black" points="1880,-1205.92 1879.96,-1195.32 1873.38,-1203.63 1880,-1205.92"/>
<text text-anchor="middle" x="1782.91" y="-1459.32" font-family="Times,serif" font-size="14.00">50</text>
</g>
<!-- 25 -->
<g id="node32" class="node"><title>25</title>
<ellipse fill="none" stroke="black" cx="1580.54" cy="-1770.27" rx="27" ry="18"/>
<text text-anchor="middle" x="1580.54" y="-1766.57" font-family="Times,serif" font-size="14.00">25</text>
</g>
<!-- 0&#45;&gt;25 -->
<g id="edge36" class="edge"><title>0&#45;&gt;25</title>
<path fill="none" stroke="black" d="M1673.81,-1732.94C1656.42,-1739.9 1632.43,-1749.5 1613.14,-1757.23"/>
<polygon fill="black" stroke="black" points="1611.8,-1753.99 1603.81,-1760.96 1614.4,-1760.49 1611.8,-1753.99"/>
<text text-anchor="middle" x="1636.47" y="-1748.88" font-family="Times,serif" font-size="14.00">25</text>
</g>
<!-- 17 -->
<g id="node23" class="node"><title>17</title>
<ellipse fill="none" stroke="black" cx="1732.44" cy="-982.16" rx="27" ry="18"/>
<text text-anchor="middle" x="1732.44" y="-978.46" font-family="Times,serif" font-size="14.00">17</text>
</g>
<!-- 17&#45;&gt;49 -->
<g id="edge47" class="edge"><title>17&#45;&gt;49</title>
<path fill="none" stroke="black" d="M1710.92,-971.066C1694.01,-962.349 1670.25,-950.098 1651.37,-940.367"/>
<polygon fill="black" stroke="black" points="1652.77,-937.151 1642.28,-935.68 1649.57,-943.373 1652.77,-937.151"/>
<text text-anchor="middle" x="1677.65" y="-959.516" font-family="Times,serif" font-size="14.00">1</text>
</g>
<!-- 15 -->
<g id="node24" class="node"><title>15</title>
<ellipse fill="none" stroke="black" cx="1823.32" cy="-1068.81" rx="27" ry="18"/>
<text text-anchor="middle" x="1823.32" y="-1065.11" font-family="Times,serif" font-size="14.00">15</text>
</g>
<!-- 17&#45;&gt;15 -->
<g id="edge18" class="edge"><title>17&#45;&gt;15</title>
<path fill="none" stroke="black" d="M1748.27,-997.254C1762.61,-1010.92 1783.9,-1031.23 1800.15,-1046.72"/>
<polygon fill="black" stroke="black" points="1798.02,-1049.53 1807.67,-1053.89 1802.85,-1044.46 1798.02,-1049.53"/>
<text text-anchor="middle" x="1770.71" y="-1025.79" font-family="Times,serif" font-size="14.00">1</text>
</g>
<!-- 15&#45;&gt;46 -->
<g id="edge30" class="edge"><title>15&#45;&gt;46</title>
<path fill="none" stroke="black" d="M1833.13,-1085.81C1843.36,-1103.52 1859.51,-1131.5 1871.3,-1151.91"/>
<polygon fill="black" stroke="black" points="1868.33,-1153.78 1876.37,-1160.69 1874.4,-1150.28 1868.33,-1153.78"/>
<text text-anchor="middle" x="1848.71" y="-1122.66" font-family="Times,serif" font-size="14.00">1</text>
</g>
<!-- 23 -->
<g id="node25" class="node"><title>23</title>
<ellipse fill="none" stroke="black" cx="1069.86" cy="-1800.17" rx="27" ry="18"/>
<text text-anchor="middle" x="1069.86" y="-1796.47" font-family="Times,serif" font-size="14.00">23</text>
</g>
<!-- 36 -->
<g id="node26" class="node"><title>36</title>
<ellipse fill="none" stroke="black" cx="952.882" cy="-1753.34" rx="27" ry="18"/>
<text text-anchor="middle" x="952.882" y="-1749.64" font-family="Times,serif" font-size="14.00">36</text>
</g>
<!-- 23&#45;&gt;36 -->
<g id="edge19" class="edge"><title>23&#45;&gt;36</title>
<path fill="none" stroke="black" d="M1046.47,-1790.8C1029.01,-1783.81 1004.94,-1774.18 985.585,-1766.43"/>
<polygon fill="black" stroke="black" points="986.816,-1763.15 976.231,-1762.68 984.214,-1769.65 986.816,-1763.15"/>
<text text-anchor="middle" x="1012.53" y="-1782.42" font-family="Times,serif" font-size="14.00">1</text>
</g>
<!-- 35 -->
<g id="node33" class="node"><title>35</title>
<ellipse fill="none" stroke="black" cx="1129.74" cy="-1614.25" rx="27" ry="18"/>
<text text-anchor="middle" x="1129.74" y="-1610.55" font-family="Times,serif" font-size="14.00">35</text>
</g>
<!-- 36&#45;&gt;35 -->
<g id="edge29" class="edge"><title>36&#45;&gt;35</title>
<path fill="none" stroke="black" d="M970.486,-1739.49C1001.87,-1714.81 1067.6,-1663.12 1104.04,-1634.46"/>
<polygon fill="black" stroke="black" points="1106.51,-1636.97 1112.21,-1628.04 1102.19,-1631.47 1106.51,-1636.97"/>
<text text-anchor="middle" x="1033.77" y="-1690.78" font-family="Times,serif" font-size="14.00">1</text>
</g>
<!-- 47 -->
<g id="node27" class="node"><title>47</title>
<ellipse fill="none" stroke="black" cx="2170.05" cy="-1398.5" rx="27" ry="18"/>
<text text-anchor="middle" x="2170.05" y="-1394.8" font-family="Times,serif" font-size="14.00">47</text>
</g>
<!-- 47&#45;&gt;13 -->
<g id="edge20" class="edge"><title>47&#45;&gt;13</title>
<path fill="none" stroke="black" d="M2188.68,-1411.92C2202.03,-1421.54 2220.21,-1434.64 2235.15,-1445.39"/>
<polygon fill="black" stroke="black" points="2233.34,-1448.41 2243.5,-1451.41 2237.43,-1442.73 2233.34,-1448.41"/>
<text text-anchor="middle" x="2208.41" y="-1432.46" font-family="Times,serif" font-size="14.00">1</text>
</g>
<!-- 47&#45;&gt;40 -->
<g id="edge43" class="edge"><title>47&#45;&gt;40</title>
<path fill="none" stroke="black" d="M2158.2,-1414.96C2148.02,-1429.1 2133.18,-1449.69 2121.57,-1465.81"/>
<polygon fill="black" stroke="black" points="2118.51,-1464.07 2115.5,-1474.23 2124.19,-1468.17 2118.51,-1464.07"/>
<text text-anchor="middle" x="2136.39" y="-1444.18" font-family="Times,serif" font-size="14.00">2</text>
</g>
<!-- 41 -->
<g id="node28" class="node"><title>41</title>
<ellipse fill="none" stroke="black" cx="814.766" cy="-1341.53" rx="27" ry="18"/>
<text text-anchor="middle" x="814.766" y="-1337.83" font-family="Times,serif" font-size="14.00">41</text>
</g>
<!-- 41&#45;&gt;1 -->
<g id="edge22" class="edge"><title>41&#45;&gt;1</title>
<path fill="none" stroke="black" d="M841.174,-1346.51C881.024,-1354.02 956.621,-1368.26 1001.44,-1376.7"/>
<polygon fill="black" stroke="black" points="1000.85,-1380.15 1011.32,-1378.57 1002.14,-1373.27 1000.85,-1380.15"/>
<text text-anchor="middle" x="917.808" y="-1365.41" font-family="Times,serif" font-size="14.00">1</text>
</g>
<!-- 38 -->
<g id="node29" class="node"><title>38</title>
<ellipse fill="none" stroke="black" cx="996.404" cy="-1094.01" rx="27" ry="18"/>
<text text-anchor="middle" x="996.404" y="-1090.31" font-family="Times,serif" font-size="14.00">38</text>
</g>
<!-- 38&#45;&gt;33 -->
<g id="edge24" class="edge"><title>38&#45;&gt;33</title>
<path fill="none" stroke="black" d="M1018.16,-1105.22C1028.92,-1110.77 1042.09,-1117.56 1053.85,-1123.62"/>
<polygon fill="black" stroke="black" points="1052.4,-1126.82 1062.9,-1128.29 1055.61,-1120.6 1052.4,-1126.82"/>
<text text-anchor="middle" x="1032.5" y="-1118.22" font-family="Times,serif" font-size="14.00">1</text>
</g>
<!-- 29 -->
<g id="node30" class="node"><title>29</title>
<ellipse fill="none" stroke="black" cx="1103.65" cy="-71.6124" rx="27" ry="18"/>
<text text-anchor="middle" x="1103.65" y="-67.9124" font-family="Times,serif" font-size="14.00">29</text>
</g>
<!-- 29&#45;&gt;31 -->
<g id="edge25" class="edge"><title>29&#45;&gt;31</title>
<path fill="none" stroke="black" d="M1109.39,-89.5707C1143.74,-197.021 1321.96,-754.595 1363.75,-885.335"/>
<polygon fill="black" stroke="black" points="1360.46,-886.541 1366.83,-895.001 1367.12,-884.41 1360.46,-886.541"/>
<text text-anchor="middle" x="1233.07" y="-491.253" font-family="Times,serif" font-size="14.00">1</text>
</g>
<!-- 39 -->
<g id="node31" class="node"><title>39</title>
<ellipse fill="none" stroke="black" cx="1455.54" cy="-1782.21" rx="27" ry="18"/>
<text text-anchor="middle" x="1455.54" y="-1778.51" font-family="Times,serif" font-size="14.00">39</text>
</g>
<!-- 39&#45;&gt;25 -->
<g id="edge27" class="edge"><title>39&#45;&gt;25</title>
<path fill="none" stroke="black" d="M1482.36,-1779.65C1500.23,-1777.94 1523.97,-1775.68 1543.63,-1773.8"/>
<polygon fill="black" stroke="black" points="1544.15,-1777.27 1553.77,-1772.83 1543.48,-1770.3 1544.15,-1777.27"/>
<text text-anchor="middle" x="1509.49" y="-1780.52" font-family="Times,serif" font-size="14.00">1</text>
</g>
<!-- 25&#45;&gt;21 -->
<g id="edge45" class="edge"><title>25&#45;&gt;21</title>
<path fill="none" stroke="black" d="M1592.28,-1753.8C1642.3,-1683.55 1837.92,-1408.83 1898.04,-1324.41"/>
<polygon fill="black" stroke="black" points="1900.95,-1326.36 1903.9,-1316.18 1895.25,-1322.3 1900.95,-1326.36"/>
<text text-anchor="middle" x="1738.16" y="-1542.91" font-family="Times,serif" font-size="14.00">25</text>
</g>
<!-- 35&#45;&gt;2 -->
<g id="edge50" class="edge"><title>35&#45;&gt;2</title>
<path fill="none" stroke="black" d="M1119.93,-1597.26C1109.7,-1579.54 1093.55,-1551.56 1081.77,-1531.15"/>
<polygon fill="black" stroke="black" points="1084.73,-1529.28 1076.7,-1522.37 1078.67,-1532.78 1084.73,-1529.28"/>
<text text-anchor="middle" x="1097.35" y="-1568.01" font-family="Times,serif" font-size="14.00">1</text>
</g>
<!-- 10 -->
<g id="node34" class="node"><title>10</title>
<ellipse fill="none" stroke="black" cx="1226.05" cy="-41.918" rx="27" ry="18"/>
<text text-anchor="middle" x="1226.05" y="-38.218" font-family="Times,serif" font-size="14.00">10</text>
</g>
<!-- 10&#45;&gt;31 -->
<g id="edge32" class="edge"><title>10&#45;&gt;31</title>
<path fill="none" stroke="black" d="M1229.11,-60.1074C1247.67,-170.455 1345.13,-749.928 1367.8,-884.745"/>
<polygon fill="black" stroke="black" points="1364.37,-885.421 1369.48,-894.702 1371.27,-884.26 1364.37,-885.421"/>
<text text-anchor="middle" x="1294.96" y="-476.226" font-family="Times,serif" font-size="14.00">1</text>
</g>
<!-- 5 -->
<g id="node38" class="node"><title>5</title>
<ellipse fill="none" stroke="black" cx="1220.62" cy="-1700.91" rx="27" ry="18"/>
<text text-anchor="middle" x="1220.62" y="-1697.21" font-family="Times,serif" font-size="14.00">5</text>
</g>
<!-- 2&#45;&gt;5 -->
<g id="edge58" class="edge"><title>2&#45;&gt;5</title>
<path fill="none" stroke="black" d="M1079.53,-1521.49C1106.43,-1555.7 1169.71,-1636.16 1201.58,-1676.68"/>
<polygon fill="black" stroke="black" points="1198.94,-1679 1207.88,-1684.69 1204.45,-1674.67 1198.94,-1679"/>
<text text-anchor="middle" x="1137.05" y="-1587.89" font-family="Times,serif" font-size="14.00">1</text>
</g>
<!-- 42 -->
<g id="node36" class="node"><title>42</title>
<ellipse fill="none" stroke="black" cx="853.839" cy="-1831.22" rx="27" ry="18"/>
<text text-anchor="middle" x="853.839" y="-1827.52" font-family="Times,serif" font-size="14.00">42</text>
</g>
<!-- 42&#45;&gt;36 -->
<g id="edge34" class="edge"><title>42&#45;&gt;36</title>
<path fill="none" stroke="black" d="M871.546,-1817.3C887.038,-1805.12 909.735,-1787.27 927.218,-1773.52"/>
<polygon fill="black" stroke="black" points="929.631,-1776.07 935.328,-1767.14 925.304,-1770.57 929.631,-1776.07"/>
<text text-anchor="middle" x="895.882" y="-1799.21" font-family="Times,serif" font-size="14.00">1</text>
</g>
<!-- 43 -->
<g id="node37" class="node"><title>43</title>
<ellipse fill="none" stroke="black" cx="1332.24" cy="-1758.45" rx="27" ry="18"/>
<text text-anchor="middle" x="1332.24" y="-1754.75" font-family="Times,serif" font-size="14.00">43</text>
</g>
<!-- 43&#45;&gt;13 -->
<g id="edge48" class="edge"><title>43&#45;&gt;13</title>
<path fill="none" stroke="black" d="M1357.11,-1750.59C1486.13,-1709.85 2078.98,-1522.64 2228.02,-1475.57"/>
<polygon fill="black" stroke="black" points="2229.1,-1478.9 2237.58,-1472.55 2226.99,-1472.22 2229.1,-1478.9"/>
<text text-anchor="middle" x="1789.07" y="-1601.88" font-family="Times,serif" font-size="14.00">2</text>
</g>
<!-- 43&#45;&gt;39 -->
<g id="edge49" class="edge"><title>43&#45;&gt;39</title>
<path fill="none" stroke="black" d="M1358.39,-1763.49C1376.12,-1766.9 1399.81,-1771.47 1419.35,-1775.24"/>
<polygon fill="black" stroke="black" points="1418.95,-1778.72 1429.43,-1777.18 1420.27,-1771.85 1418.95,-1778.72"/>
<text text-anchor="middle" x="1385.37" y="-1773.16" font-family="Times,serif" font-size="14.00">1</text>
</g>
<!-- 43&#45;&gt;35 -->
<g id="edge57" class="edge"><title>43&#45;&gt;35</title>
<path fill="none" stroke="black" d="M1313.55,-1745.14C1277.54,-1719.49 1198.4,-1663.14 1156.69,-1633.44"/>
<polygon fill="black" stroke="black" points="1158.56,-1630.47 1148.39,-1627.53 1154.5,-1636.18 1158.56,-1630.47"/>
<text text-anchor="middle" x="1231.62" y="-1678.09" font-family="Times,serif" font-size="14.00">1</text>
</g>
<!-- 43&#45;&gt;5 -->
<g id="edge35" class="edge"><title>43&#45;&gt;5</title>
<path fill="none" stroke="black" d="M1310.72,-1747.35C1293.81,-1738.63 1270.05,-1726.38 1251.17,-1716.65"/>
<polygon fill="black" stroke="black" points="1252.57,-1713.44 1242.08,-1711.97 1249.36,-1719.66 1252.57,-1713.44"/>
<text text-anchor="middle" x="1277.44" y="-1735.8" font-family="Times,serif" font-size="14.00">1</text>
</g>
<!-- 5&#45;&gt;39 -->
<g id="edge38" class="edge"><title>5&#45;&gt;39</title>
<path fill="none" stroke="black" d="M1244.88,-1709.3C1287.02,-1723.88 1373.81,-1753.92 1421.8,-1770.53"/>
<polygon fill="black" stroke="black" points="1420.82,-1773.9 1431.42,-1773.86 1423.11,-1767.28 1420.82,-1773.9"/>
<text text-anchor="middle" x="1329.84" y="-1728.72" font-family="Times,serif" font-size="14.00">1</text>
</g>
<!-- 20 -->
<g id="node39" class="node"><title>20</title>
<ellipse fill="none" stroke="black" cx="1350.72" cy="-23.9931" rx="27" ry="18"/>
<text text-anchor="middle" x="1350.72" y="-20.2931" font-family="Times,serif" font-size="14.00">20</text>
</g>
<!-- 20&#45;&gt;31 -->
<g id="edge37" class="edge"><title>20&#45;&gt;31</title>
<path fill="none" stroke="black" d="M1351.17,-42.1499C1353.91,-153.847 1368.47,-747.518 1371.83,-884.553"/>
<polygon fill="black" stroke="black" points="1368.33,-884.752 1372.08,-894.663 1375.33,-884.58 1368.33,-884.752"/>
<text text-anchor="middle" x="1358" y="-467.152" font-family="Times,serif" font-size="14.00">1</text>
</g>
<!-- 48 -->
<g id="node40" class="node"><title>48</title>
<ellipse fill="none" stroke="black" cx="1077.41" cy="-960.973" rx="27" ry="18"/>
<text text-anchor="middle" x="1077.41" y="-957.273" font-family="Times,serif" font-size="14.00">48</text>
</g>
<!-- 48&#45;&gt;11 -->
<g id="edge39" class="edge"><title>48&#45;&gt;11</title>
<path fill="none" stroke="black" d="M1093.18,-976.011C1104.88,-987.165 1121.01,-1002.55 1134.16,-1015.08"/>
<polygon fill="black" stroke="black" points="1131.85,-1017.71 1141.5,-1022.08 1136.68,-1012.65 1131.85,-1017.71"/>
<text text-anchor="middle" x="1110.17" y="-999.346" font-family="Times,serif" font-size="14.00">1</text>
</g>
<!-- 7 -->
<g id="node41" class="node"><title>7</title>
<ellipse fill="none" stroke="black" cx="1602.34" cy="-23.9931" rx="27" ry="18"/>
<text text-anchor="middle" x="1602.34" y="-20.2931" font-family="Times,serif" font-size="14.00">7</text>
</g>
<!-- 7&#45;&gt;18 -->
<g id="edge40" class="edge"><title>7&#45;&gt;18</title>
<path fill="none" stroke="black" d="M1600.15,-42.3076C1586.87,-153.414 1517.13,-736.872 1500.9,-872.616"/>
<polygon fill="black" stroke="black" points="1497.41,-872.296 1499.7,-882.641 1504.36,-873.127 1497.41,-872.296"/>
<text text-anchor="middle" x="1547.03" y="-461.262" font-family="Times,serif" font-size="14.00">1</text>
</g>
<!-- 22 -->
<g id="node42" class="node"><title>22</title>
<ellipse fill="none" stroke="black" cx="826.725" cy="-1216.29" rx="27" ry="18"/>
<text text-anchor="middle" x="826.725" y="-1212.59" font-family="Times,serif" font-size="14.00">22</text>
</g>
<!-- 22&#45;&gt;4 -->
<g id="edge41" class="edge"><title>22&#45;&gt;4</title>
<path fill="none" stroke="black" d="M852.853,-1221.33C891.395,-1228.76 963.62,-1242.68 1007.21,-1251.08"/>
<polygon fill="black" stroke="black" points="1006.63,-1254.53 1017.11,-1252.99 1007.95,-1247.66 1006.63,-1254.53"/>
<text text-anchor="middle" x="926.531" y="-1240" font-family="Times,serif" font-size="14.00">1</text>
</g>
<!-- 24 -->
<g id="node43" class="node"><title>24</title>
<ellipse fill="none" stroke="black" cx="1859.4" cy="-960.476" rx="27" ry="18"/>
<text text-anchor="middle" x="1859.4" y="-956.776" font-family="Times,serif" font-size="14.00">24</text>
</g>
<!-- 24&#45;&gt;15 -->
<g id="edge44" class="edge"><title>24&#45;&gt;15</title>
<path fill="none" stroke="black" d="M1853.44,-978.366C1847.75,-995.46 1839.09,-1021.47 1832.51,-1041.22"/>
<polygon fill="black" stroke="black" points="1829.13,-1040.3 1829.29,-1050.9 1835.77,-1042.52 1829.13,-1040.3"/>
<text text-anchor="middle" x="1839.48" y="-1013.59" font-family="Times,serif" font-size="14.00">1</text>
</g>
<!-- 26 -->
<g id="node44" class="node"><title>26</title>
<ellipse fill="none" stroke="black" cx="2195.79" cy="-1556.85" rx="27" ry="18"/>
<text text-anchor="middle" x="2195.79" y="-1553.15" font-family="Times,serif" font-size="14.00">26</text>
</g>
<!-- 26&#45;&gt;13 -->
<g id="edge46" class="edge"><title>26&#45;&gt;13</title>
<path fill="none" stroke="black" d="M2207.65,-1540.4C2217.83,-1526.26 2232.66,-1505.67 2244.28,-1489.55"/>
<polygon fill="black" stroke="black" points="2247.34,-1491.28 2250.35,-1481.12 2241.66,-1487.19 2247.34,-1491.28"/>
<text text-anchor="middle" x="2222.46" y="-1518.77" font-family="Times,serif" font-size="14.00">1</text>
</g>
<!-- 26&#45;&gt;40 -->
<g id="edge52" class="edge"><title>26&#45;&gt;40</title>
<path fill="none" stroke="black" d="M2177.17,-1543.44C2163.82,-1533.82 2145.63,-1520.72 2130.7,-1509.96"/>
<polygon fill="black" stroke="black" points="2132.51,-1506.95 2122.35,-1503.95 2128.42,-1512.63 2132.51,-1506.95"/>
<text text-anchor="middle" x="2150.43" y="-1530.5" font-family="Times,serif" font-size="14.00">1</text>
</g>
<!-- 19 -->
<g id="node45" class="node"><title>19</title>
<ellipse fill="none" stroke="black" cx="1704.9" cy="-489.243" rx="27" ry="18"/>
<text text-anchor="middle" x="1704.9" y="-485.543" font-family="Times,serif" font-size="14.00">19</text>
</g>
<!-- 19&#45;&gt;49 -->
<g id="edge55" class="edge"><title>19&#45;&gt;49</title>
<path fill="none" stroke="black" d="M1701.45,-507.122C1688.43,-574.571 1642.2,-813.941 1626.27,-896.434"/>
<polygon fill="black" stroke="black" points="1622.82,-895.868 1624.36,-906.35 1629.69,-897.195 1622.82,-895.868"/>
<text text-anchor="middle" x="1660.36" y="-705.578" font-family="Times,serif" font-size="14.00">1</text>
</g>
<!-- 37 -->
<g id="node46" class="node"><title>37</title>
<ellipse fill="none" stroke="black" cx="1937.11" cy="-1059.29" rx="27" ry="18"/>
<text text-anchor="middle" x="1937.11" y="-1055.59" font-family="Times,serif" font-size="14.00">37</text>
</g>
<!-- 37&#45;&gt;15 -->
<g id="edge59" class="edge"><title>37&#45;&gt;15</title>
<path fill="none" stroke="black" d="M1910.15,-1061.55C1895.37,-1062.79 1876.84,-1064.34 1860.69,-1065.69"/>
<polygon fill="black" stroke="black" points="1860.16,-1062.22 1850.49,-1066.54 1860.75,-1069.2 1860.16,-1062.22"/>
<text text-anchor="middle" x="1881.92" y="-1067.42" font-family="Times,serif" font-size="14.00">2</text>
</g>
<!-- 30 -->
<g id="node47" class="node"><title>30</title>
<ellipse fill="none" stroke="black" cx="934.95" cy="-1628.62" rx="27" ry="18"/>
<text text-anchor="middle" x="934.95" y="-1624.92" font-family="Times,serif" font-size="14.00">30</text>
</g>
<!-- 30&#45;&gt;36 -->
<g id="edge61" class="edge"><title>30&#45;&gt;36</title>
<path fill="none" stroke="black" d="M937.557,-1646.75C940.519,-1667.35 945.387,-1701.21 948.841,-1725.23"/>
<polygon fill="black" stroke="black" points="945.383,-1725.78 950.271,-1735.18 952.312,-1724.78 945.383,-1725.78"/>
<text text-anchor="middle" x="939.699" y="-1689.79" font-family="Times,serif" font-size="14.00">1</text>
</g>
<!-- 9 -->
<g id="node48" class="node"><title>9</title>
<ellipse fill="none" stroke="black" cx="1823.87" cy="-530.419" rx="27" ry="18"/>
<text text-anchor="middle" x="1823.87" y="-526.719" font-family="Times,serif" font-size="14.00">9</text>
</g>
<!-- 9&#45;&gt;49 -->
<g id="edge62" class="edge"><title>9&#45;&gt;49</title>
<path fill="none" stroke="black" d="M1815.02,-547.61C1783.02,-609.728 1673.25,-822.837 1634.51,-898.064"/>
<polygon fill="black" stroke="black" points="1631.2,-896.844 1629.73,-907.337 1637.42,-900.05 1631.2,-896.844"/>
<text text-anchor="middle" x="1721.26" y="-726.637" font-family="Times,serif" font-size="14.00">1</text>
</g>
</g>
</svg>
